<svg xmlns="http://www.w3.org/2000/svg" viewBox="0 0 48 48"><rect width="48" height="48" rx="15" fill="#2d5548"/><g fill="#e2eec8"><ellipse cx="12" cy="20" rx="4.4" ry="5.5" transform="rotate(-25 12 20)"/><ellipse cx="20" cy="13" rx="4" ry="5.4" transform="rotate(-10 20 13)"/><ellipse cx="30" cy="13" rx="4" ry="5.4" transform="rotate(10 30 13)"/><ellipse cx="37" cy="21" rx="4.2" ry="5.3" transform="rotate(25 37 21)"/><path d="M13 33c0-4 3-7 6-10 3-3 7-3 10 0s7 6 7 10-4 6-7 4c-3-1-5-1-8 0s-8 0-8-4"/></g></svg>
